<?xml version="1.0" encoding="utf-8"?>
<!-- Generator: Adobe Illustrator 16.0.0, SVG Export Plug-In . SVG Version: 6.00 Build 0)  -->
<!DOCTYPE svg PUBLIC "-//W3C//DTD SVG 1.1//EN" "http://www.w3.org/Graphics/SVG/1.1/DTD/svg11.dtd">
<svg version="1.1" id="Layer_1" xmlns="http://www.w3.org/2000/svg" xmlns:xlink="http://www.w3.org/1999/xlink" x="0px" y="0px"
	 width="294.985px" height="78.131px" viewBox="0 0 294.985 78.131" enable-background="new 0 0 294.985 78.131"
	 xml:space="preserve">
<path fill="#FFFFFF" d="M126.751,0c0.876,0.888,1.519,1.907,1.79,3.141c0.167,0.75,0.261,1.518,0.261,2.28
	c0.014,13.116,0.019,26.234-0.002,39.353c-0.002,1.604-0.277,3.17-1.271,4.532c-0.441,0.606-0.935,0.907-1.7,0.904
	c-7.083-0.021-14.167-0.014-21.25-0.014h-0.68v27.926H91.95V0h34.368c0.072,0.041,0.145,0.169,0.217,0H126.751z M103.466,39.207
	h13.484V9.898h-13.484V39.207z"/>
<path fill="#FFFFFF" d="M249.477,0.002c0.481,0.703,1.17,1.252,1.506,2.064c0.156,0.38,0.341,0.742,0.341,1.174
	c-0.004,7.57-0.002,15.14-0.002,22.707v0.298c-0.165,0.153-0.339,0.096-0.492,0.098c-2.854,0.002-5.707-0.009-8.563,0.012
	c-0.485,0.004-0.606-0.153-0.604-0.621c0.014-5.003,0.007-10.007,0.007-15.014c0-0.215,0-0.43,0-0.673
	c-0.336-0.128-0.671-0.186-1.033-0.183c-4.841,0.004-9.683,0.002-14.524,0.002c-0.812,0-0.812,0.002-0.812,0.796
	c0,19.093,0,38.19,0,57.285c0,0.785,0,0.785,0.817,0.785c3.866,0,7.73,0.009,11.599-0.007c1.293-0.004,2.591,0.124,3.935-0.142
	V52.183h9.616c0.101,0.199,0.053,0.398,0.053,0.593c0.002,7.208,0.002,14.417,0,21.622c0,0.943-0.366,1.788-0.749,2.621
	c-0.009,0.014-0.025,0.027-0.03,0.046c-0.341,1.05-1.124,1.128-2.104,1.124c-9.665-0.032-19.329-0.044-28.993,0.007
	c-1.483,0.009-2.527-0.579-3.488-1.568c-0.771-0.792-1.309-1.701-1.634-2.753c-0.073-0.231-0.078-0.46-0.078-0.694
	c0-22.744-0.005-45.49,0.009-68.236c0-1.122,0.398-2.17,0.952-3.154c0.369-0.652,0.724-1.302,1.314-1.788H249.477z"/>
<path fill="#FFFFFF" d="M194.943,0.002c0.101,1.206,0.426,2.374,0.659,3.555c0.92,4.638,1.859,9.271,2.792,13.904
	c0.966,4.816,1.937,9.627,2.907,14.439c1.378,6.835,2.756,13.67,4.134,20.505c1.486,7.384,2.967,14.769,4.45,22.155
	c0.178,0.902,0.357,1.804,0.513,2.712c0.146,0.868,0.018,0.909-0.705,0.904c-3.25-0.018-6.503-0.009-9.756-0.009h-0.611
	c-1.069-5.402-2.126-10.761-3.188-16.131h-14.528c-1.01,5.366-2.017,10.715-3.029,16.099h-10.504
	c-0.066-0.579,0.169-1.122,0.263-1.669c0.572-3.275,1.174-6.544,1.785-9.813c0.403-2.138,0.888-4.262,1.25-6.409
	c0.698-4.132,1.451-8.254,2.22-12.375c1.154-6.189,2.335-12.375,3.507-18.56c1.433-7.572,2.864-15.142,4.294-22.714
	c0.375-1.985,0.755-3.972,1.13-5.956c0.042-0.211,0.11-0.419,0.06-0.639H194.943z M189.241,16.863
	c-0.066-0.011-0.13-0.021-0.194-0.032c-2.023,11.665-4.235,23.296-6.336,34.949h12.125
	C192.965,40.108,191.102,28.487,189.241,16.863"/>
<polygon fill="#FFFFFF" points="295.01,0.002 295.01,9.861 269.13,9.861 269.13,39.117 285.762,39.117 285.762,50.292 
	269.14,50.292 269.14,68.728 294.985,68.728 294.985,78.131 257.822,78.131 257.822,0.002 "/>
<polygon fill="#FFFFFF" points="146.049,0.002 146.049,68.724 164.018,68.724 164.018,78.129 134.231,78.129 134.231,0.002 "/>
<polygon fill="#FFFFFF" points="24.191,0.002 24.191,39.101 17.589,39.101 17.589,23.016 8.39,23.016 8.39,39.138 1.206,39.138 
	1.206,0.002 8.363,0.002 8.363,17.417 17.578,17.417 17.578,0.002 "/>
<polygon fill="#FFFFFF" points="1.207,41.09 24.159,41.09 24.159,50.075 15.774,50.075 15.774,68.712 24.148,68.712 24.148,78.168 
	1.207,78.168 1.207,68.735 9.953,68.735 9.953,50.088 1.207,50.088 "/>
<polygon fill="#FFFFFF" points="46.417,0.002 46.417,6.283 34.411,6.283 34.411,17.436 43.89,17.436 43.89,22.973 34.424,22.973 
	34.424,32.951 46.605,32.951 46.605,39.099 27.444,39.099 27.444,0.002 "/>
<polygon fill="#FFFFFF" points="56.824,0.002 56.824,32.948 67.313,32.948 67.313,39.099 49.668,39.099 49.668,0.002 "/>
<polygon fill="#FFFFFF" points="77.64,0.002 77.64,32.948 88.67,32.948 88.67,39.099 70.593,39.099 70.593,0.002 "/>
<path fill="#FFFFFF" d="M53.411,78.168h-0.673c-7.786,0-15.573-0.004-23.362,0.014c-0.595,0-1.111-0.048-1.505-0.549
	c-0.092-0.117-0.249-0.185-0.408-0.297v-8.557h8.314v3.944h7.208c0.128-0.145,0.065-0.334,0.065-0.504
	c0.007-1.394-0.038-2.786,0.021-4.173c0.029-0.662-0.231-1.073-0.709-1.449c-2.434-1.907-4.857-3.818-7.283-5.732
	c-2.384-1.877-4.764-3.758-7.157-5.626c-0.333-0.258-0.483-0.552-0.483-0.963c0.007-4.102,0-8.204,0.007-12.306
	c0-0.565,0.338-0.879,0.901-0.879c7.969,0,15.936,0,23.903,0c0.635,0,1.364,0.652,1.428,1.3c0.244,2.539,0.034,5.082,0.128,7.661
	H45.14v-3.065h-8.423c-0.114,0.169-0.054,0.373-0.054,0.563c-0.007,1.646,0.014,3.29-0.014,4.933
	c-0.007,0.449,0.147,0.719,0.49,0.994c5.147,4.093,10.288,8.188,15.404,12.319c0.422,0.339,1.001,0.526,1.238,1.115
	c0.077,0.195,0.114,0.369,0.114,0.561c0.002,3.069-0.016,6.141,0.016,9.213C53.92,77.252,53.632,77.658,53.411,78.168"/>
<path fill="#FFFFFF" d="M88.34,78.152h-8.959c-0.494-1.795-0.989-3.58-1.485-5.382H65.559c-0.562,1.776-1.134,3.573-1.708,5.379
	h-7.566c4.032-12.358,8.054-24.689,12.082-37.037h6.682C79.468,53.431,83.894,65.759,88.34,78.152 M75.737,65.631
	c-1.194-4.599-2.37-9.126-3.575-13.766c-1.479,4.651-2.92,9.174-4.38,13.766H75.737z"/>
</svg>
